<?xml version="1.0" encoding="UTF-8"?>
<!DOCTYPE svg PUBLIC "-//W3C//DTD SVG 1.1//EN" "http://www.w3.org/Graphics/SVG/1.1/DTD/svg11.dtd">
<svg xmlns="http://www.w3.org/2000/svg" version="1.1" width="980px" height="980px" style="shape-rendering:geometricPrecision; text-rendering:geometricPrecision; image-rendering:optimizeQuality; fill-rule:evenodd; clip-rule:evenodd" xmlns:xlink="http://www.w3.org/1999/xlink">
<g><path style="opacity:1" fill="#fefefe" d="M -0.5,-0.5 C 326.167,-0.5 652.833,-0.5 979.5,-0.5C 979.5,326.167 979.5,652.833 979.5,979.5C 652.833,979.5 326.167,979.5 -0.5,979.5C -0.5,652.833 -0.5,326.167 -0.5,-0.5 Z"/></g>
<g><path style="opacity:1" fill="#020202" d="M 615.5,407.5 C 614.076,409.515 613.41,411.848 613.5,414.5C 610.195,424.622 604.695,433.289 597,440.5C 596.219,441.729 595.719,443.062 595.5,444.5C 608.811,469.121 622.644,493.454 637,517.5C 638.411,519.65 639.245,521.984 639.5,524.5C 683.999,516.865 712.832,534.532 726,577.5C 729.593,612.163 716.093,637.33 685.5,653C 649.218,665.241 620.718,655.407 600,623.5C 585.064,591.693 589.897,563.359 614.5,538.5C 607.569,526.969 600.902,515.302 594.5,503.5C 594.573,501.973 593.906,500.973 592.5,500.5C 585.111,486.726 577.444,473.059 569.5,459.5C 566.072,458.681 562.739,459.181 559.5,461C 552.167,461.667 544.833,461.667 537.5,461C 534.748,460.788 532.248,459.955 530,458.5C 513.207,485.911 497.041,513.745 481.5,542C 488.8,550.437 494.133,559.937 497.5,570.5C 497.41,573.152 498.076,575.485 499.5,577.5C 502.698,601.907 495.698,622.907 478.5,640.5C 493.868,666.573 508.701,692.907 523,719.5C 523.899,721.327 525.233,722.66 527,723.5C 528.766,722.767 530.599,722.433 532.5,722.5C 540.132,721.642 547.799,721.309 555.5,721.5C 590.841,728.672 610.174,750.172 613.5,786C 612.499,824 593.499,847.333 556.5,856C 522.864,859.269 498.697,845.769 484,815.5C 475.778,795.054 476.778,775.054 487,755.5C 490.65,750.187 494.65,745.187 499,740.5C 499.64,738.735 499.473,737.068 498.5,735.5C 498.573,733.973 497.906,732.973 496.5,732.5C 483.753,709.338 470.753,686.338 457.5,663.5C 457.573,661.973 456.906,660.973 455.5,660.5C 454.919,658.003 453.419,656.336 451,655.5C 438.646,659.419 426.313,659.419 414,655.5C 412.739,655.759 411.739,656.426 411,657.5C 395.953,684.43 380.786,711.264 365.5,738C 387.734,760.165 393.234,785.999 382,815.5C 372.014,836.319 355.847,849.652 333.5,855.5C 326.201,856.35 318.868,856.683 311.5,856.5C 273.58,848.404 253.913,824.904 252.5,786C 255.233,754.929 271.233,733.929 300.5,723C 302.134,722.506 303.801,722.34 305.5,722.5C 312.799,721.65 320.132,721.317 327.5,721.5C 331.093,721.641 334.593,722.308 338,723.5C 338.833,723.167 339.667,722.833 340.5,722.5C 355.414,695.671 370.58,669.004 386,642.5C 386.667,641.167 386.667,639.833 386,638.5C 368.201,619.994 361.867,597.994 367,572.5C 373.309,552.342 385.809,537.508 404.5,528C 420.687,521.673 437.187,520.839 454,525.5C 455.711,525.561 457.044,524.894 458,523.5C 472.808,496.708 487.975,470.208 503.5,444C 495.036,435.58 488.702,425.746 484.5,414.5C 484.59,411.848 483.924,409.515 482.5,407.5C 478.535,387.248 482.702,368.914 495,352.5C 499.196,348.558 503.03,344.391 506.5,340C 491.859,313.21 476.859,286.71 461.5,260.5C 460.913,258.245 459.58,256.579 457.5,255.5C 452.656,256.301 447.989,257.301 443.5,258.5C 435.492,258.847 427.658,257.847 420,255.5C 419.228,255.645 418.561,255.978 418,256.5C 401.636,284.565 385.802,312.898 370.5,341.5C 368.448,342.053 368.115,343.053 369.5,344.5C 393.464,370.1 396.964,398.434 380,429.5C 369.461,445.854 354.627,456.187 335.5,460.5C 328.201,461.35 320.868,461.683 313.5,461.5C 284.34,455.51 265.506,438.177 257,409.5C 250.653,372.857 264.153,346.357 297.5,330C 311.982,324.585 326.649,324.085 341.5,328.5C 342.167,328.167 342.833,327.833 343.5,327.5C 359.967,298.732 376.3,269.898 392.5,241C 376.212,223.377 369.379,202.543 372,178.5C 376.87,154.621 390.37,137.455 412.5,127C 445.636,116.38 473.136,124.547 495,151.5C 513.272,183.786 509.772,213.452 484.5,240.5C 500.735,269.146 517.068,297.646 533.5,326C 569.346,321.836 595.512,335.67 612,367.5C 616.432,380.548 617.599,393.881 615.5,407.5 Z"/></g>
<g><path style="opacity:1" fill="#d3d3d3" d="M 461.5,260.5 C 459.329,258.993 456.829,257.993 454,257.5C 450.542,258.286 447.042,258.62 443.5,258.5C 447.989,257.301 452.656,256.301 457.5,255.5C 459.58,256.579 460.913,258.245 461.5,260.5 Z"/></g>
<g><path style="opacity:1" fill="#646464" d="M 370.5,341.5 C 369.89,342.391 369.557,343.391 369.5,344.5C 368.115,343.053 368.448,342.053 370.5,341.5 Z"/></g>
<g><path style="opacity:1" fill="#ababab" d="M 482.5,407.5 C 483.924,409.515 484.59,411.848 484.5,414.5C 483.076,412.485 482.41,410.152 482.5,407.5 Z"/></g>
<g><path style="opacity:1" fill="#acacac" d="M 615.5,407.5 C 615.59,410.152 614.924,412.485 613.5,414.5C 613.41,411.848 614.076,409.515 615.5,407.5 Z"/></g>
<g><path style="opacity:1" fill="#c0c0c0" d="M 335.5,460.5 C 335.389,461.117 335.056,461.617 334.5,462C 327.321,462.821 320.321,462.655 313.5,461.5C 320.868,461.683 328.201,461.35 335.5,460.5 Z"/></g>
<g><path style="opacity:1" fill="#7f7f7f" d="M 592.5,500.5 C 593.906,500.973 594.573,501.973 594.5,503.5C 593.094,503.027 592.427,502.027 592.5,500.5 Z"/></g>
<g><path style="opacity:1" fill="#7b7b7b" d="M 497.5,570.5 C 498.924,572.515 499.59,574.848 499.5,577.5C 498.076,575.485 497.41,573.152 497.5,570.5 Z"/></g>
<g><path style="opacity:1" fill="#7d7d7d" d="M 455.5,660.5 C 456.906,660.973 457.573,661.973 457.5,663.5C 456.094,663.027 455.427,662.027 455.5,660.5 Z"/></g>
<g><path style="opacity:1" fill="#3a3a3a" d="M 327.5,721.5 C 320.132,721.317 312.799,721.65 305.5,722.5C 306.263,721.732 307.263,721.232 308.5,721C 315.014,720.18 321.347,720.347 327.5,721.5 Z"/></g>
<g><path style="opacity:1" fill="#494949" d="M 555.5,721.5 C 547.799,721.309 540.132,721.642 532.5,722.5C 533.263,721.732 534.263,721.232 535.5,721C 542.346,720.179 549.013,720.346 555.5,721.5 Z"/></g>
<g><path style="opacity:1" fill="#6f6f6f" d="M 496.5,732.5 C 497.906,732.973 498.573,733.973 498.5,735.5C 497.094,735.027 496.427,734.027 496.5,732.5 Z"/></g>
<g><path style="opacity:1" fill="#b3b3b3" d="M 333.5,855.5 C 333.082,856.222 332.416,856.722 331.5,857C 324.654,857.821 317.987,857.654 311.5,856.5C 318.868,856.683 326.201,856.35 333.5,855.5 Z"/></g>
</svg>
